# xmcd
#
# Track frame offsets: 
#        150
#        7701
#        23630
#        34583
#        47647
#        65741
#        83729
#        94349
#
# Disc length: 1431 seconds
#
# Revision: 0
# Processed by: cddbd v1.5.2PL0 Copyright (c) Steve Scherf et al.
# Submitted via: ExactAudioCopyFreeDBPlugin 1.0
#
DISCID=54059508
DTITLE=Marcia Mello - Abundance
DYEAR=2014
DGENRE=Blues
TTITLE0=In the Company Of A Lizard
TTITLE1=I Had A Real Good Mother And Father
TTITLE2=I'll be Resting When The Roll Is Called
TTITLE3=That's No Way to get Along
TTITLE4=Wayfaring Stranger
TTITLE5=Dance Of The Pixie
TTITLE6=Sun And A Star
TTITLE7=Goin' To Rest Where Jesus Is
EXTD=
EXTT0=
EXTT1=
EXTT2=
EXTT3=
EXTT4=
EXTT5=
EXTT6=
EXTT7=
PLAYORDER=
